# https://github.com/mikedh/trimesh

o link6.STL
v -0.01231532 -0.00503178 0.08248820
v -0.01258324 -0.00603179 0.08248796
v -0.01058324 -0.00603173 0.08248983
v -0.01231526 -0.00703178 0.08248822
v -0.01158319 -0.00776381 0.08248891
v -0.00958329 -0.00429965 0.08249075
v -0.01058330 -0.00403173 0.08248981
v -0.01158329 -0.00429971 0.08248888
v -0.00885116 -0.00703168 0.08249145
v -0.00858324 -0.00603168 0.08249170
v -0.00885122 -0.00503168 0.08249144
v -0.01058319 -0.00803173 0.08248985
v -0.00958319 -0.00776376 0.08249078
v -0.00179361 0.01319351 0.08249786
v -0.00206154 0.01219350 0.08249763
v -0.00006154 0.01219356 0.08249949
v -0.00179356 0.01119351 0.08249789
v -0.00106149 0.01046148 0.08249857
v 0.00093842 0.01392563 0.08250041
v -0.00006159 0.01419356 0.08249947
v -0.00106158 0.01392558 0.08249854
v 0.00167054 0.01119360 0.08250111
v 0.00193846 0.01219361 0.08250136
v 0.00167049 0.01319360 0.08250110
v -0.00006148 0.01019356 0.08249951
v 0.00093851 0.01046153 0.08250044
v 0.00872909 -0.00503120 0.08250783
v 0.00846117 -0.00603121 0.08250760
v 0.01046117 -0.00603116 0.08250946
v 0.00872914 -0.00703120 0.08250785
v 0.00946121 -0.00776323 0.08250854
v 0.01146112 -0.00429908 0.08251037
v 0.01046111 -0.00403116 0.08250944
v 0.00946112 -0.00429913 0.08250851
v 0.01219324 -0.00703111 0.08251108
v 0.01246117 -0.00603110 0.08251132
v 0.01219319 -0.00503111 0.08251107
v 0.01046122 -0.00803116 0.08250947
v 0.01146121 -0.00776318 0.08251040
v 0.00669011 0.01173507 0.08075472
v 0.00606444 0.01065253 0.08150522
v 0.00668944 0.01048508 0.08150581
v 0.00560689 0.01111005 0.08150478
v 0.00777195 0.01111011 0.08150680
v 0.00793941 0.01173511 0.08150696
v 0.00731444 0.01065256 0.08150639
v 0.00731438 0.01281762 0.08150636
v 0.00668937 0.01298508 0.08150578
v 0.00777192 0.01236011 0.08150680
v 0.00560686 0.01236005 0.08150478
v 0.00543941 0.01173504 0.08150463
v 0.00606438 0.01281759 0.08150520
v -0.00680989 0.01173470 0.08074212
v -0.00743556 0.01065216 0.08149263
v -0.00681055 0.01048471 0.08149321
v -0.00789310 0.01110968 0.08149219
v -0.00572804 0.01110974 0.08149421
v -0.00556059 0.01173474 0.08149437
v -0.00618556 0.01065219 0.08149379
v -0.00618562 0.01281725 0.08149377
v -0.00681062 0.01298471 0.08149319
v -0.00572807 0.01235974 0.08149420
v -0.00789314 0.01235968 0.08149219
v -0.00806059 0.01173467 0.08149204
v -0.00743562 0.01281722 0.08149261
v -0.01355956 0.00004317 0.08073592
v -0.01418524 -0.00103937 0.08148643
v -0.01356023 -0.00120682 0.08148701
v -0.01464278 -0.00058185 0.08148599
v -0.01247772 -0.00058179 0.08148801
v -0.01231027 0.00004321 0.08148817
v -0.01293524 -0.00103934 0.08148760
v -0.01293529 0.00112573 0.08148757
v -0.01356030 0.00129318 0.08148699
v -0.01247775 0.00066821 0.08148801
v -0.01464281 0.00066815 0.08148599
v -0.01481027 0.00004314 0.08148584
v -0.01418529 0.00112569 0.08148641
v -0.00680925 -0.01164799 0.08074232
v -0.00743492 -0.01273053 0.08149282
v -0.00680991 -0.01289798 0.08149341
v -0.00789246 -0.01227301 0.08149239
v -0.00572740 -0.01227295 0.08149441
v -0.00555995 -0.01164795 0.08149456
v -0.00618492 -0.01273050 0.08149399
v -0.00618498 -0.01056543 0.08149397
v -0.00680998 -0.01039798 0.08149339
v -0.00572743 -0.01102295 0.08149440
v -0.00789250 -0.01102301 0.08149238
v -0.00805995 -0.01164801 0.08149223
v -0.00743498 -0.01056547 0.08149280
v 0.00669075 -0.01164762 0.08075491
v 0.00606508 -0.01273016 0.08150541
v 0.00669008 -0.01289761 0.08150600
v 0.00560753 -0.01227264 0.08150499
v 0.00777259 -0.01227258 0.08150700
v 0.00794005 -0.01164758 0.08150715
v 0.00731508 -0.01273013 0.08150658
v 0.00731502 -0.01056506 0.08150656
v 0.00669001 -0.01039761 0.08150598
v 0.00777256 -0.01102258 0.08150699
v 0.00560750 -0.01102264 0.08150497
v 0.00544005 -0.01164764 0.08150482
v 0.00606502 -0.01056510 0.08150540
v 0.01344042 0.00004391 0.08076111
v 0.01281475 -0.00103863 0.08151161
v 0.01343976 -0.00120608 0.08151220
v 0.01235721 -0.00058111 0.08151118
v 0.01452227 -0.00058105 0.08151320
v 0.01468972 0.00004395 0.08151335
v 0.01406475 -0.00103860 0.08151278
v 0.01406469 0.00112647 0.08151276
v 0.01343969 0.00129392 0.08151218
v 0.01452224 0.00066895 0.08151319
v 0.01235717 0.00066889 0.08151117
v 0.01218972 0.00004388 0.08151102
v 0.01281469 0.00112643 0.08151159
v -0.01231900 -0.00703175 0.08648822
v -0.01158693 -0.00776378 0.08648891
v -0.01058692 -0.00803170 0.08648984
v -0.00958693 -0.00776372 0.08649077
v -0.00885489 -0.00703165 0.08649145
v -0.00858697 -0.00603164 0.08649169
v -0.00885495 -0.00503165 0.08649144
v -0.00958702 -0.00429962 0.08649074
v -0.01058703 -0.00403170 0.08648981
v -0.01158702 -0.00429968 0.08648888
v -0.01231905 -0.00503175 0.08648820
v -0.01258697 -0.00603175 0.08648796
v -0.00179729 0.01119354 0.08649788
v -0.00106522 0.01046151 0.08649857
v -0.00006521 0.01019359 0.08649950
v 0.00093478 0.01046157 0.08650044
v 0.00166681 0.01119364 0.08650111
v 0.00193473 0.01219364 0.08650135
v 0.00166675 0.01319364 0.08650110
v 0.00093468 0.01392567 0.08650041
v -0.00006532 0.01419359 0.08649947
v -0.00106531 0.01392561 0.08649854
v -0.00179734 0.01319354 0.08649787
v -0.00206527 0.01219353 0.08649763
v 0.00872541 -0.00703117 0.08650785
v 0.00945748 -0.00776320 0.08650853
v 0.01045749 -0.00803112 0.08650947
v 0.01145748 -0.00776315 0.08651040
v 0.01218951 -0.00703108 0.08651108
v 0.01245743 -0.00603107 0.08651132
v 0.01218946 -0.00503108 0.08651106
v 0.01145739 -0.00429904 0.08651038
v 0.01045738 -0.00403112 0.08650944
v 0.00945739 -0.00429910 0.08650851
v 0.00872536 -0.00503117 0.08650783
v 0.00845744 -0.00603118 0.08650759
v 0.00560223 0.01111009 0.08650479
v 0.00605977 0.01065257 0.08650522
v 0.00668478 0.01048512 0.08650580
v 0.00730977 0.01065260 0.08650638
v 0.00776729 0.01111015 0.08650681
v 0.00793474 0.01173515 0.08650696
v 0.00776726 0.01236015 0.08650679
v 0.00730971 0.01281767 0.08650637
v 0.00668471 0.01298512 0.08650578
v 0.00605971 0.01281763 0.08650520
v 0.00560219 0.01236009 0.08650477
v 0.00543474 0.01173508 0.08650462
v -0.00789777 0.01110972 0.08649220
v -0.00744022 0.01065220 0.08649262
v -0.00681522 0.01048475 0.08649321
v -0.00619022 0.01065223 0.08649379
v -0.00573270 0.01110978 0.08649421
v -0.00556525 0.01173478 0.08649436
v -0.00573274 0.01235978 0.08649420
v -0.00619028 0.01281730 0.08649377
v -0.00681529 0.01298475 0.08649319
v -0.00744028 0.01281726 0.08649261
v -0.00789780 0.01235972 0.08649218
v -0.00806525 0.01173471 0.08649203
v -0.01464744 -0.00058181 0.08648600
v -0.01418990 -0.00103933 0.08648642
v -0.01356489 -0.00120678 0.08648701
v -0.01293990 -0.00103929 0.08648759
v -0.01248238 -0.00058175 0.08648802
v -0.01231493 0.00004325 0.08648816
v -0.01248241 0.00066825 0.08648800
v -0.01293996 0.00112577 0.08648758
v -0.01356496 0.00129322 0.08648699
v -0.01418996 0.00112573 0.08648641
v -0.01464748 0.00066819 0.08648598
v -0.01481493 0.00004319 0.08648583
v -0.00789713 -0.01227297 0.08649239
v -0.00743958 -0.01273049 0.08649282
v -0.00681458 -0.01289794 0.08649340
v -0.00618958 -0.01273045 0.08649398
v -0.00573206 -0.01227291 0.08649441
v -0.00556461 -0.01164790 0.08649456
v -0.00573210 -0.01102291 0.08649439
v -0.00618964 -0.01056539 0.08649397
v -0.00681465 -0.01039794 0.08649338
v -0.00743964 -0.01056542 0.08649280
v -0.00789716 -0.01102297 0.08649237
v -0.00806461 -0.01164797 0.08649223
v 0.00560287 -0.01227260 0.08650498
v 0.00606041 -0.01273012 0.08650541
v 0.00668542 -0.01289757 0.08650599
v 0.00731041 -0.01273008 0.08650658
v 0.00776793 -0.01227254 0.08650700
v 0.00793538 -0.01164753 0.08650715
v 0.00776790 -0.01102254 0.08650699
v 0.00731035 -0.01056502 0.08650656
v 0.00668535 -0.01039757 0.08650597
v 0.00606035 -0.01056505 0.08650539
v 0.00560283 -0.01102260 0.08650497
v 0.00543538 -0.01164760 0.08650482
v 0.01235255 -0.00058107 0.08651118
v 0.01281009 -0.00103859 0.08651161
v 0.01343509 -0.00120604 0.08651219
v 0.01406009 -0.00103856 0.08651277
v 0.01451761 -0.00058101 0.08651320
v 0.01468506 0.00004399 0.08651335
v 0.01451757 0.00066899 0.08651319
v 0.01406003 0.00112651 0.08651276
v 0.01343503 0.00129396 0.08651217
v 0.01281003 0.00112647 0.08651159
v 0.01235251 0.00066893 0.08651116
v 0.01218506 0.00004392 0.08651102
v -0.00188993 0.00852912 0.08649782
v -0.00913195 0.00434767 0.08649110
v -0.00687629 0.00044100 0.08649323
v 0.00036573 0.00462245 0.08649995
v -0.01635539 0.00643661 0.08648434
v -0.01579948 0.00670454 0.08648486
v -0.01495208 0.00924265 0.08648563
v -0.00710601 -0.00835203 0.08649309
v -0.01341414 -0.01127227 0.08648723
v -0.01085619 -0.00185695 0.08648954
v -0.01653903 -0.00586014 0.08648428
v -0.01522013 -0.00870683 0.08648553
v -0.01311185 0.00204972 0.08648741
v -0.01756298 0.00030490 0.08648327
v -0.01732843 -0.00282370 0.08648352
v -0.01723512 0.00342510 0.08648355
v -0.00457755 0.01318393 0.08649527
v -0.00522361 0.01676597 0.08649464
v 0.00705252 0.01603083 0.08650610
v 0.00408350 0.01704478 0.08650332
v 0.00113437 0.01648192 0.08650057
v 0.00098116 0.01751230 0.08650042
v -0.00215481 0.01741835 0.08649750
v 0.01581363 0.00740028 0.08651434
v 0.01424487 0.01011728 0.08651286
v 0.01124125 0.01090183 0.08651005
v 0.01733924 -0.00178518 0.08651584
v 0.01738609 0.00135184 0.08651586
v 0.01724709 0.00050007 0.08651573
v 0.01687204 0.00444682 0.08651535
v 0.01499143 0.00440674 0.08651360
v 0.01558688 -0.00778396 0.08651426
v 0.01393768 -0.01045291 0.08651274
v 0.01183843 -0.01278449 0.08651080
v 0.00743412 -0.00761959 0.08650665
v 0.00019210 -0.01180103 0.08649993
v 0.00045906 -0.01744856 0.08650023
v 0.00357399 -0.01707389 0.08650313
v 0.00657195 -0.01614906 0.08650592
v 0.00935660 -0.01470377 0.08650851
v -0.00378781 -0.01409898 0.08649623
v -0.00267270 -0.01726102 0.08649730
v -0.00485036 -0.01225870 0.08649523
v -0.00858682 -0.01524129 0.08649177
v -0.00572065 -0.01651729 0.08649445
v -0.01117909 -0.01347401 0.08648933
v -0.00312611 -0.00605409 0.08649679
v 0.00637157 -0.00577931 0.08650564
v 0.01208349 -0.00248132 0.08651094
v 0.01314604 -0.00432159 0.08651195
v -0.01181957 0.00900248 0.08648855
v -0.01307028 0.01175302 0.08648736
v -0.01077048 0.01388704 0.08648949
v -0.00812660 0.01557612 0.08649194
v -0.00087045 -0.00996076 0.08649892
v 0.00411591 -0.00187264 0.08650351
v 0.00982783 0.00142535 0.08650881
v 0.01673301 -0.00486343 0.08651530
v 0.00607766 0.00792044 0.08650526
v 0.00382200 0.01182711 0.08650312
v 0.00898559 0.01480850 0.08650791
v 0.01221618 0.01251051 0.08651094
v 0.00979277 0.01450304 0.08650867
v -0.01341274 -0.01127228 0.08498724
v -0.01117769 -0.01347402 0.08498934
v -0.00858542 -0.01524130 0.08499177
v -0.00571925 -0.01651731 0.08499446
v -0.00267130 -0.01726103 0.08499730
v 0.00046046 -0.01744858 0.08500022
v 0.00357539 -0.01707391 0.08500313
v 0.00657335 -0.01614907 0.08500592
v 0.00935800 -0.01470378 0.08500850
v 0.01183983 -0.01278451 0.08501080
v 0.01393908 -0.01045292 0.08501274
v 0.01558828 -0.00778397 0.08501425
v 0.01673441 -0.00486344 0.08501530
v 0.01734064 -0.00178519 0.08501584
v 0.01738749 0.00135183 0.08501586
v 0.01687344 0.00444681 0.08501536
v 0.01581503 0.00740026 0.08501434
v 0.01424627 0.01011727 0.08501285
v 0.01221758 0.01251049 0.08501095
v 0.00979417 0.01450303 0.08500867
v 0.00705391 0.01603082 0.08500610
v 0.00408490 0.01704477 0.08500332
v 0.00098256 0.01751228 0.08500043
v -0.00215341 0.01741834 0.08499750
v -0.00522221 0.01676596 0.08499464
v -0.00812520 0.01557611 0.08499194
v -0.01076909 0.01388703 0.08498949
v -0.01306888 0.01175301 0.08498736
v -0.01495068 0.00924264 0.08498563
v -0.01635399 0.00643660 0.08498434
v -0.01723372 0.00342509 0.08498355
v -0.01756158 0.00030489 0.08498327
v -0.01732703 -0.00282371 0.08498351
v -0.01653763 -0.00586015 0.08498427
v -0.01521873 -0.00870684 0.08498553
v -0.00580005 -0.01675389 0.08499438
v -0.00270855 -0.01750824 0.08499727
v 0.00046795 -0.01769846 0.08500023
v 0.00362737 -0.01731844 0.08500318
v 0.00666816 -0.01638039 0.08500601
v 0.00949259 -0.01491446 0.08500863
v 0.01200988 -0.01296776 0.08501096
v 0.01413912 -0.01060287 0.08501293
v 0.01581187 -0.00789580 0.08501446
v 0.01697438 -0.00493354 0.08501553
v 0.01758927 -0.00181132 0.08501607
v 0.01763679 0.00137052 0.08501609
v 0.01711540 0.00450971 0.08501558
v 0.01604187 0.00750536 0.08501455
v 0.01445070 0.01026118 0.08501305
v 0.01239302 0.01268859 0.08501110
v 0.00993499 0.01470959 0.08500879
v 0.00715559 0.01625921 0.08500619
v 0.00414417 0.01728764 0.08500338
v 0.00099750 0.01776184 0.08500043
v -0.00218326 0.01766655 0.08499747
v -0.00529590 0.01700485 0.08499457
v -0.00824037 0.01579800 0.08499184
v -0.01092202 0.01408479 0.08498935
v -0.01325468 0.01192028 0.08498719
v -0.01516336 0.00937405 0.08498543
v -0.01658672 0.00652793 0.08498412
v -0.01747901 0.00347339 0.08498332
v -0.01781155 0.00030862 0.08498304
v -0.01757366 -0.00286467 0.08498328
v -0.01677297 -0.00594449 0.08498406
v -0.01543524 -0.00883184 0.08498533
v -0.01360344 -0.01143394 0.08498706
v -0.01133646 -0.01366713 0.08498919
v -0.00870716 -0.01545966 0.08499166
v 0.01534361 0.00891868 0.04701387
v 0.01448614 0.01026086 0.04701306
v 0.01242847 0.01268828 0.04701112
v 0.00997043 0.01470927 0.04700881
v 0.00719104 0.01625889 0.04700621
v 0.00417961 0.01728733 0.04700339
v 0.00103295 0.01776152 0.04700045
v -0.00214782 0.01766624 0.04699748
v -0.00526046 0.01700453 0.04699459
v -0.00820492 0.01579768 0.04699185
v -0.01088658 0.01408447 0.04698936
v -0.01321923 0.01191997 0.04698721
v -0.01512791 0.00937373 0.04698545
v -0.01655127 0.00652761 0.04698414
v -0.01744356 0.00347308 0.04698334
v -0.01777610 0.00030830 0.04698305
v -0.01753821 -0.00286499 0.04698330
v -0.01673753 -0.00594480 0.04698407
v -0.01539979 -0.00883216 0.04698534
v -0.01356800 -0.01143425 0.04698708
v -0.01130102 -0.01366745 0.04698921
v -0.00867171 -0.01545997 0.04699168
v -0.00576460 -0.01675421 0.04699440
v -0.00267311 -0.01750856 0.04699729
v 0.00050339 -0.01769878 0.04700025
v 0.00366282 -0.01731876 0.04700319
v 0.00670361 -0.01638071 0.04700603
v 0.00952804 -0.01491477 0.04700864
v 0.01204533 -0.01296808 0.04701098
v 0.01417456 -0.01060319 0.04701294
v 0.01584732 -0.00789611 0.04701448
v 0.01700982 -0.00493386 0.04701554
v 0.01762472 -0.00181164 0.04701609
v 0.01767223 0.00137020 0.04701611
v 0.01715085 0.00450940 0.04701560
v 0.01607732 0.00750504 0.04701457
v -0.00002809 0.00004326 0.04699961
f 1 2 3
f 3 2 4
f 3 4 5
f 6 7 3
f 3 7 8
f 3 8 1
f 9 10 3
f 3 10 11
f 3 11 6
f 5 12 3
f 3 12 13
f 3 13 9
f 14 15 16
f 16 15 17
f 16 17 18
f 19 20 16
f 16 20 21
f 16 21 14
f 22 23 16
f 16 23 24
f 16 24 19
f 18 25 16
f 16 25 26
f 16 26 22
f 27 28 29
f 29 28 30
f 29 30 31
f 32 33 29
f 29 33 34
f 29 34 27
f 35 36 29
f 29 36 37
f 29 37 32
f 31 38 29
f 29 38 39
f 29 39 35
f 40 41 42
f 43 41 40
f 40 44 45
f 46 44 40
f 42 46 40
f 40 47 48
f 49 47 40
f 45 49 40
f 40 50 51
f 52 50 40
f 48 52 40
f 51 43 40
f 53 54 55
f 56 54 53
f 53 57 58
f 59 57 53
f 55 59 53
f 53 60 61
f 62 60 53
f 58 62 53
f 53 63 64
f 65 63 53
f 61 65 53
f 64 56 53
f 66 67 68
f 69 67 66
f 66 70 71
f 72 70 66
f 68 72 66
f 66 73 74
f 75 73 66
f 71 75 66
f 66 76 77
f 78 76 66
f 74 78 66
f 77 69 66
f 79 80 81
f 82 80 79
f 79 83 84
f 85 83 79
f 81 85 79
f 79 86 87
f 88 86 79
f 84 88 79
f 79 89 90
f 91 89 79
f 87 91 79
f 90 82 79
f 92 93 94
f 95 93 92
f 92 96 97
f 98 96 92
f 94 98 92
f 92 99 100
f 101 99 92
f 97 101 92
f 92 102 103
f 104 102 92
f 100 104 92
f 103 95 92
f 105 106 107
f 108 106 105
f 105 109 110
f 111 109 105
f 107 111 105
f 105 112 113
f 114 112 105
f 110 114 105
f 105 115 116
f 117 115 105
f 113 117 105
f 116 108 105
f 4 118 5
f 5 118 119
f 5 119 12
f 12 119 120
f 12 120 13
f 13 120 121
f 13 121 9
f 9 121 122
f 9 122 10
f 10 122 123
f 10 123 11
f 11 123 124
f 11 124 6
f 6 124 125
f 6 125 7
f 7 125 126
f 7 126 8
f 8 126 127
f 8 127 1
f 1 127 128
f 1 128 2
f 2 128 129
f 2 129 4
f 4 129 118
f 17 130 18
f 18 130 131
f 18 131 25
f 25 131 132
f 25 132 26
f 26 132 133
f 26 133 22
f 22 133 134
f 22 134 23
f 23 134 135
f 23 135 24
f 24 135 136
f 24 136 19
f 19 136 137
f 19 137 20
f 20 137 138
f 20 138 21
f 21 138 139
f 21 139 14
f 14 139 140
f 14 140 15
f 15 140 141
f 15 141 17
f 17 141 130
f 30 142 31
f 31 142 143
f 31 143 38
f 38 143 144
f 38 144 39
f 39 144 145
f 39 145 35
f 35 145 146
f 35 146 36
f 36 146 147
f 36 147 37
f 37 147 148
f 37 148 32
f 32 148 149
f 32 149 33
f 33 149 150
f 33 150 34
f 34 150 151
f 34 151 27
f 27 151 152
f 27 152 28
f 28 152 153
f 28 153 30
f 30 153 142
f 43 154 41
f 41 154 155
f 41 155 42
f 42 155 156
f 42 156 46
f 46 156 157
f 46 157 44
f 44 157 158
f 44 158 45
f 45 158 159
f 45 159 49
f 49 159 160
f 49 160 47
f 47 160 161
f 47 161 48
f 48 161 162
f 48 162 52
f 52 162 163
f 52 163 50
f 50 163 164
f 50 164 51
f 51 164 165
f 51 165 43
f 43 165 154
f 56 166 54
f 54 166 167
f 54 167 55
f 55 167 168
f 55 168 59
f 59 168 169
f 59 169 57
f 57 169 170
f 57 170 58
f 58 170 171
f 58 171 62
f 62 171 172
f 62 172 60
f 60 172 173
f 60 173 61
f 61 173 174
f 61 174 65
f 65 174 175
f 65 175 63
f 63 175 176
f 63 176 64
f 64 176 177
f 64 177 56
f 56 177 166
f 69 178 67
f 67 178 179
f 67 179 68
f 68 179 180
f 68 180 72
f 72 180 181
f 72 181 70
f 70 181 182
f 70 182 71
f 71 182 183
f 71 183 75
f 75 183 184
f 75 184 73
f 73 184 185
f 73 185 74
f 74 185 186
f 74 186 78
f 78 186 187
f 78 187 76
f 76 187 188
f 76 188 77
f 77 188 189
f 77 189 69
f 69 189 178
f 82 190 80
f 80 190 191
f 80 191 81
f 81 191 192
f 81 192 85
f 85 192 193
f 85 193 83
f 83 193 194
f 83 194 84
f 84 194 195
f 84 195 88
f 88 195 196
f 88 196 86
f 86 196 197
f 86 197 87
f 87 197 198
f 87 198 91
f 91 198 199
f 91 199 89
f 89 199 200
f 89 200 90
f 90 200 201
f 90 201 82
f 82 201 190
f 95 202 93
f 93 202 203
f 93 203 94
f 94 203 204
f 94 204 98
f 98 204 205
f 98 205 96
f 96 205 206
f 96 206 97
f 97 206 207
f 97 207 101
f 101 207 208
f 101 208 99
f 99 208 209
f 99 209 100
f 100 209 210
f 100 210 104
f 104 210 211
f 104 211 102
f 102 211 212
f 102 212 103
f 103 212 213
f 103 213 95
f 95 213 202
f 108 214 106
f 106 214 215
f 106 215 107
f 107 215 216
f 107 216 111
f 111 216 217
f 111 217 109
f 109 217 218
f 109 218 110
f 110 218 219
f 110 219 114
f 114 219 220
f 114 220 112
f 112 220 221
f 112 221 113
f 113 221 222
f 113 222 117
f 117 222 223
f 117 223 115
f 115 223 224
f 115 224 116
f 116 224 225
f 116 225 108
f 108 225 214
f 131 130 226
f 227 228 229
f 230 231 232
f 122 121 233
f 233 121 234
f 128 127 235
f 235 127 126
f 129 236 118
f 118 236 237
f 118 237 119
f 119 237 234
f 119 234 120
f 120 234 121
f 182 181 235
f 235 181 236
f 235 236 128
f 128 236 129
f 186 238 187
f 187 238 239
f 187 239 188
f 186 185 238
f 238 185 184
f 238 184 235
f 235 184 183
f 235 183 182
f 181 180 236
f 236 180 179
f 236 179 240
f 240 179 178
f 240 178 239
f 239 178 189
f 239 189 188
f 231 230 238
f 238 230 241
f 238 241 239
f 172 242 173
f 173 242 243
f 244 245 246
f 246 245 247
f 246 247 242
f 242 247 248
f 242 248 243
f 249 250 251
f 252 253 254
f 254 253 255
f 254 255 256
f 257 146 258
f 258 146 145
f 258 145 259
f 142 260 143
f 143 260 259
f 143 259 144
f 144 259 145
f 202 213 261
f 261 213 212
f 261 212 260
f 260 212 211
f 208 259 209
f 209 259 260
f 209 260 210
f 210 260 211
f 202 262 203
f 203 262 263
f 203 263 204
f 204 263 264
f 204 264 205
f 205 264 265
f 205 265 206
f 206 265 259
f 206 259 207
f 207 259 208
f 202 261 262
f 262 261 266
f 262 266 267
f 268 269 270
f 196 195 268
f 198 197 233
f 233 197 196
f 269 191 271
f 271 191 190
f 271 190 234
f 195 194 268
f 268 194 193
f 268 193 269
f 269 193 192
f 269 192 191
f 190 201 234
f 234 201 200
f 234 200 233
f 233 200 199
f 233 199 198
f 122 233 123
f 123 233 272
f 123 272 124
f 142 153 273
f 153 152 273
f 273 152 151
f 273 151 274
f 151 150 274
f 274 150 149
f 274 149 275
f 275 149 148
f 275 148 257
f 257 148 147
f 257 147 146
f 172 171 226
f 227 167 276
f 276 167 166
f 276 166 277
f 277 166 177
f 277 177 278
f 278 177 176
f 278 176 279
f 279 176 175
f 279 175 243
f 243 175 174
f 243 174 173
f 171 170 226
f 226 170 169
f 226 169 227
f 227 169 168
f 227 168 167
f 142 273 260
f 260 273 280
f 260 280 261
f 261 280 268
f 261 268 266
f 266 268 270
f 266 270 267
f 196 268 233
f 233 268 280
f 233 280 272
f 272 280 273
f 272 273 281
f 281 273 274
f 281 274 282
f 217 216 274
f 225 282 214
f 214 282 274
f 214 274 215
f 215 274 216
f 254 219 218
f 225 224 282
f 282 224 223
f 282 223 256
f 257 283 275
f 275 283 252
f 275 252 274
f 274 252 254
f 274 254 217
f 217 254 218
f 223 222 256
f 256 222 221
f 256 221 254
f 254 221 220
f 254 220 219
f 256 284 282
f 282 284 229
f 282 229 281
f 281 229 228
f 281 228 272
f 272 228 125
f 272 125 124
f 285 154 165
f 157 156 284
f 284 156 155
f 162 286 163
f 163 286 285
f 163 285 164
f 164 285 165
f 227 229 226
f 226 229 284
f 226 284 285
f 285 284 155
f 285 155 154
f 255 249 256
f 256 249 251
f 256 251 284
f 284 251 158
f 284 158 157
f 162 161 286
f 286 161 160
f 286 160 251
f 251 160 159
f 251 159 158
f 126 125 235
f 235 125 228
f 235 228 238
f 238 228 227
f 238 227 231
f 231 227 276
f 231 276 232
f 232 276 277
f 172 226 242
f 242 226 130
f 242 130 141
f 136 135 285
f 135 134 285
f 285 134 133
f 285 133 226
f 226 133 132
f 226 132 131
f 141 140 242
f 242 140 139
f 242 139 246
f 246 139 138
f 246 138 137
f 250 287 251
f 251 287 288
f 251 288 286
f 286 288 244
f 286 244 285
f 285 244 246
f 285 246 136
f 136 246 137
f 237 289 234
f 234 289 290
f 234 290 271
f 271 290 291
f 271 291 269
f 269 291 292
f 269 292 270
f 270 292 293
f 270 293 267
f 267 293 294
f 267 294 262
f 262 294 295
f 262 295 263
f 263 295 296
f 263 296 264
f 264 296 297
f 264 297 265
f 265 297 298
f 265 298 259
f 259 298 299
f 259 299 258
f 258 299 300
f 258 300 257
f 257 300 301
f 257 301 283
f 283 301 302
f 283 302 252
f 252 302 303
f 252 303 253
f 253 303 304
f 253 304 255
f 255 304 305
f 255 305 249
f 249 305 306
f 249 306 250
f 250 306 307
f 250 307 287
f 287 307 308
f 287 308 288
f 288 308 309
f 288 309 244
f 244 309 310
f 244 310 245
f 245 310 311
f 245 311 247
f 247 311 312
f 247 312 248
f 248 312 313
f 248 313 243
f 243 313 314
f 243 314 279
f 279 314 315
f 279 315 278
f 278 315 316
f 278 316 277
f 277 316 317
f 277 317 232
f 232 317 318
f 232 318 230
f 230 318 319
f 230 319 241
f 241 319 320
f 241 320 239
f 239 320 321
f 239 321 240
f 240 321 322
f 240 322 236
f 236 322 323
f 236 323 237
f 237 323 289
f 292 324 293
f 293 324 325
f 293 325 294
f 294 325 326
f 294 326 295
f 295 326 327
f 295 327 296
f 296 327 328
f 296 328 297
f 297 328 329
f 297 329 298
f 298 329 330
f 298 330 299
f 299 330 331
f 299 331 300
f 300 331 332
f 300 332 301
f 301 332 333
f 301 333 302
f 302 333 334
f 302 334 303
f 303 334 335
f 303 335 304
f 304 335 336
f 304 336 305
f 305 336 337
f 305 337 306
f 306 337 338
f 306 338 307
f 307 338 339
f 307 339 308
f 308 339 340
f 308 340 309
f 309 340 341
f 309 341 310
f 310 341 342
f 310 342 311
f 311 342 343
f 311 343 312
f 312 343 344
f 312 344 313
f 313 344 345
f 313 345 314
f 314 345 346
f 314 346 315
f 315 346 347
f 315 347 316
f 316 347 348
f 316 348 317
f 317 348 349
f 317 349 318
f 318 349 350
f 318 350 319
f 319 350 351
f 319 351 320
f 320 351 352
f 320 352 321
f 321 352 353
f 321 353 322
f 322 353 354
f 322 354 323
f 323 354 355
f 323 355 289
f 289 355 356
f 289 356 290
f 290 356 357
f 290 357 291
f 291 357 358
f 291 358 292
f 292 358 324
f 359 360 338
f 338 360 361
f 338 361 339
f 339 361 362
f 339 362 340
f 340 362 363
f 340 363 341
f 341 363 364
f 341 364 342
f 342 364 365
f 342 365 343
f 343 365 366
f 343 366 344
f 344 366 367
f 344 367 345
f 345 367 368
f 345 368 346
f 346 368 369
f 346 369 347
f 347 369 370
f 347 370 348
f 348 370 371
f 348 371 349
f 349 371 372
f 349 372 350
f 350 372 373
f 350 373 351
f 351 373 374
f 351 374 352
f 352 374 375
f 352 375 353
f 353 375 376
f 353 376 354
f 354 376 377
f 354 377 355
f 355 377 378
f 355 378 356
f 356 378 379
f 356 379 357
f 357 379 380
f 357 380 358
f 358 380 381
f 358 381 324
f 324 381 382
f 324 382 325
f 325 382 383
f 325 383 326
f 326 383 384
f 326 384 327
f 327 384 385
f 327 385 328
f 328 385 386
f 328 386 329
f 329 386 387
f 329 387 330
f 330 387 388
f 330 388 331
f 331 388 389
f 331 389 332
f 332 389 390
f 332 390 333
f 333 390 391
f 333 391 334
f 334 391 392
f 334 392 335
f 335 392 393
f 335 393 336
f 336 393 394
f 336 394 337
f 337 394 359
f 337 359 338
f 361 360 395
f 395 360 359
f 395 359 394
f 364 363 395
f 395 363 362
f 395 362 361
f 367 366 395
f 395 366 365
f 395 365 364
f 370 369 395
f 395 369 368
f 395 368 367
f 373 372 395
f 395 372 371
f 395 371 370
f 376 375 395
f 395 375 374
f 395 374 373
f 379 378 395
f 395 378 377
f 395 377 376
f 382 381 395
f 395 381 380
f 395 380 379
f 385 384 395
f 395 384 383
f 395 383 382
f 388 387 395
f 395 387 386
f 395 386 385
f 391 390 395
f 395 390 389
f 395 389 388
f 394 393 395
f 395 393 392
f 395 392 391

